<?xml version="1.0" standalone="no"?>
<!DOCTYPE svg PUBLIC "-//W3C//DTD SVG 20010904//EN"
 "http://www.w3.org/TR/2001/REC-SVG-20010904/DTD/svg10.dtd">
<svg version="1.0" xmlns="http://www.w3.org/2000/svg"
 width="512.000000pt" height="512.000000pt" viewBox="0 0 512.000000 512.000000"
 preserveAspectRatio="xMidYMid meet">
<metadata>
Created by potrace 1.14, written by Peter Selinger 2001-2017
</metadata>
<g transform="translate(0.000000,512.000000) scale(0.100000,-0.100000)"
fill="#000000" stroke="none">
<path d="M2355 5101 c-22 -3 55 -6 170 -6 116 0 244 -3 285 -7 58 -6 68 -5 45
3 -35 12 -441 21 -500 10z"/>
<path d="M2195 5080 c-12 -5 5 -7 45 -3 36 3 67 7 69 9 9 8 -95 2 -114 -6z"/>
<path d="M2900 5080 c8 -5 26 -10 39 -10 32 0 24 6 -19 14 -25 4 -31 3 -20 -4z"/>
<path d="M2112 5068 c-24 -5 -42 -11 -40 -13 7 -7 88 8 88 16 0 5 -1 9 -2 8
-2 -1 -23 -6 -46 -11z"/>
<path d="M2975 5072 c-3 -3 48 -16 112 -29 259 -52 608 -195 829 -339 15 -11
25 -14 21 -7 -17 27 -310 182 -447 236 -176 70 -497 157 -515 139z"/>
<path d="M2015 5049 c-72 -17 -108 -28 -230 -68 -181 -60 -197 -66 -357 -147
-255 -130 -451 -270 -646 -462 -347 -343 -585 -756 -705 -1222 -25 -95 -34
-144 -59 -295 -16 -98 -16 -565 0 -610 9 -23 9 -9 4 60 -12 155 -6 432 12 560
78 550 325 1052 716 1459 311 323 756 583 1185 691 61 16 114 32 120 37 5 4 7
8 5 7 -3 -1 -23 -5 -45 -10z"/>
<path d="M2390 4964 c-350 -33 -611 -107 -910 -259 -471 -240 -849 -626 -1086
-1110 -122 -252 -190 -467 -229 -730 -22 -145 -25 -464 -6 -605 52 -405 207
-798 433 -1100 l52 -70 26 49 c15 27 37 62 49 79 l21 30 -45 38 c-43 35 -124
127 -97 111 19 -12 15 1 -18 59 -86 149 -109 294 -90 562 7 104 10 213 7 243
-9 71 -68 192 -151 306 -69 96 -82 121 -43 85 l22 -21 0 122 c0 78 -5 130 -13
144 -17 31 -15 39 6 21 9 -9 74 -43 144 -76 104 -49 140 -72 200 -128 40 -38
78 -80 85 -94 l12 -25 -5 28 c-4 15 -3 27 0 27 8 0 24 -39 41 -100 12 -41 13
-42 15 -15 l2 30 12 -35 c8 -23 15 -30 18 -20 13 37 48 -255 48 -400 0 -127
13 -223 42 -310 21 -66 84 -199 111 -234 14 -19 14 -19 34 1 11 11 22 26 24
32 5 14 162 70 197 71 69 1 256 -182 326 -317 27 -53 12 -38 -29 28 -49 79
-145 181 -217 230 -58 40 -82 47 -93 29 -3 -5 -1 -10 6 -10 10 0 10 -3 1 -12
-8 -8 -42 -13 -86 -14 -96 -1 -122 -17 -40 -25 76 -7 141 -39 176 -85 27 -36
27 -41 0 -84 -1 -2 -18 -3 -37 -2 -29 2 -35 -1 -41 -23 -5 -22 -11 -25 -50
-25 -24 0 -44 4 -44 9 0 5 21 27 46 51 25 23 43 44 40 47 -11 11 -68 -21 -94
-52 l-27 -33 -70 14 c-90 17 -146 17 -170 1 -16 -12 -6 -15 76 -20 154 -9 239
-35 239 -73 0 -24 -61 -46 -156 -55 -51 -4 -103 -10 -116 -13 -95 -18 -145
-32 -156 -43 -7 -7 -21 -13 -30 -13 -33 0 -89 -122 -107 -234 -4 -22 -10 -35
-13 -30 -4 6 -16 14 -26 18 -19 7 -19 6 -1 -14 10 -11 16 -23 12 -26 -10 -10
14 -67 44 -106 16 -20 29 -45 29 -55 0 -39 52 -124 96 -158 48 -36 240 -133
314 -159 97 -33 153 -56 174 -71 101 -75 138 -93 223 -110 48 -10 98 -24 110
-31 30 -19 42 -18 17 1 -17 13 2 14 174 15 163 0 213 -4 325 -25 302 -55 603
-55 906 1 121 22 159 25 339 23 111 -1 205 1 209 5 3 3 15 6 25 6 10 0 18 4
18 9 0 5 8 12 18 14 9 3 -473 5 -1073 6 l-1090 1 -55 26 c-71 32 -144 104
-181 176 -82 161 -80 427 4 570 33 57 106 124 165 151 l47 22 1160 0 c1123 0
1161 -1 1188 -19 42 -29 61 -72 59 -140 -1 -32 -13 -185 -28 -339 -28 -303
-34 -328 -96 -394 -30 -31 -30 -32 -7 -26 13 4 35 15 49 25 20 14 48 19 130
22 130 4 207 25 304 83 4 3 2 9 -5 13 -9 6 -4 18 19 45 22 24 32 46 32 68 0
18 7 41 15 51 19 25 19 61 -1 118 l-15 46 -24 -24 c-32 -32 -41 -30 -61 9 -12
22 -19 27 -22 17 -3 -8 -13 -23 -24 -34 -10 -11 -18 -23 -18 -26 0 -4 -10 -12
-22 -17 -21 -10 -24 -7 -39 36 l-16 46 3 -80 3 -80 -17 80 c-27 118 -50 180
-88 236 -39 58 -44 103 -15 119 28 15 107 12 140 -5 67 -34 200 -209 237 -310
l22 -60 21 45 c29 63 27 141 -4 209 -31 67 -83 133 -97 125 -6 -4 -8 -3 -5 3
3 5 -12 27 -33 48 -22 22 -40 47 -40 57 0 22 -23 23 -81 3 -40 -14 -44 -14
-53 2 -5 10 -27 35 -49 56 -39 38 -40 47 -4 59 19 7 -25 67 -57 78 -19 6 -42
20 -51 30 -24 26 -28 25 -70 -11 -42 -37 -46 -24 -8 22 l27 32 -24 16 c-56 37
-66 49 -53 62 11 11 21 9 57 -8 24 -12 59 -35 77 -51 19 -16 53 -41 76 -55 23
-15 47 -35 52 -46 6 -10 35 -33 66 -50 30 -17 74 -51 97 -75 24 -24 77 -79
119 -122 42 -44 81 -88 87 -99 10 -18 13 -16 54 29 229 260 403 589 487 922
58 230 65 294 65 594 0 300 -7 367 -65 594 -78 308 -232 618 -447 896 -87 112
-285 314 -397 405 -364 294 -823 482 -1285 524 -106 10 -307 12 -390 5z m388
-54 c386 -42 725 -179 1006 -409 157 -129 329 -330 430 -503 75 -127 75 -128
97 -128 11 0 34 -14 51 -31 l31 -30 -6 -122 c-5 -87 -2 -141 8 -187 7 -36 12
-66 10 -68 -4 -5 -25 68 -25 88 0 34 -19 -11 -39 -95 -26 -105 -80 -254 -126
-345 -30 -59 -54 -98 -154 -243 -28 -41 -33 -55 -28 -88 6 -47 -8 -51 -28 -6
-8 18 -12 22 -9 9 6 -23 5 -23 -25 -8 -39 21 -60 21 -35 0 18 -15 18 -15 -6
-9 -14 3 -41 8 -60 11 -30 4 -28 2 18 -16 28 -12 68 -36 87 -54 41 -39 42 -39
14 9 -25 42 -19 57 12 29 17 -16 79 -134 79 -152 0 -3 -12 5 -27 19 -20 18
-18 12 10 -23 45 -56 47 -66 8 -39 -38 28 -46 27 -17 -2 22 -22 83 -164 74
-172 -3 -3 -26 33 -52 79 -45 82 -114 162 -176 206 -22 16 -28 17 -24 6 8 -20
8 -20 -51 8 -27 14 -52 20 -55 15 -4 -5 -21 7 -40 26 -19 20 -37 31 -40 25
-13 -21 -74 38 -126 123 -30 48 -49 87 -44 87 6 0 25 -7 43 -15 31 -16 31 -15
-8 21 -81 74 -220 121 -325 108 -162 -19 -283 -122 -328 -280 -23 -79 -35
-184 -21 -184 5 0 9 7 9 15 0 22 7 19 53 -20 73 -63 140 -88 244 -93 74 -3
105 0 160 17 66 20 183 81 233 122 l26 20 84 -47 c47 -26 108 -55 136 -64 75
-26 109 -46 148 -86 36 -37 51 -33 40 11 -6 24 -5 26 12 15 11 -7 30 -30 44
-52 14 -23 38 -54 55 -71 30 -30 30 -30 5 -25 -14 3 -34 9 -45 13 -14 4 -11
-1 10 -19 29 -25 25 -32 -12 -27 -7 1 -13 -3 -13 -9 0 -5 -10 -10 -22 -10 -19
0 -20 -2 -8 -10 12 -8 12 -10 -5 -11 -11 0 -33 -2 -49 -4 -16 -2 -39 4 -55 14
-45 32 -154 97 -198 120 -44 22 -153 40 -153 25 1 -5 24 -34 53 -65 41 -44 67
-61 125 -84 77 -30 94 -45 22 -20 -57 20 -67 19 -45 -5 10 -11 15 -23 12 -26
-3 -4 -2 -15 3 -25 7 -12 6 -20 -1 -24 -6 -4 -8 -13 -5 -21 3 -8 -3 -20 -14
-26 -17 -11 -14 -15 33 -42 29 -16 46 -31 39 -34 -7 -2 -47 16 -90 41 -82 47
-169 84 -178 74 -3 -3 6 -26 21 -51 15 -25 22 -46 16 -46 -7 0 -7 -8 -1 -25 5
-14 6 -25 1 -25 -4 0 -13 -11 -19 -25 l-12 -26 -47 27 -48 27 30 -27 c66 -59
72 -61 110 -41 28 16 36 17 49 6 22 -18 20 -54 -4 -69 -11 -7 -17 -18 -14 -27
7 -17 -11 -21 -22 -4 -3 6 -17 8 -30 5 -14 -4 -24 -2 -24 4 0 6 -5 8 -10 5 -6
-4 -8 -10 -5 -14 2 -5 -13 -16 -35 -26 -22 -10 -40 -22 -40 -27 0 -4 -7 -8
-16 -8 -8 0 -54 -11 -102 -25 -118 -34 -267 -55 -317 -45 -22 4 -33 8 -24 9
46 3 159 35 159 44 0 6 -19 42 -42 80 -41 69 -42 69 -59 48 -10 -12 -19 -26
-21 -32 -2 -6 -22 0 -47 14 -45 26 -71 26 -71 0 0 -11 -6 -13 -22 -8 -13 4
-36 8 -53 9 -16 1 -37 5 -45 8 -8 4 -30 8 -47 11 -25 3 -33 0 -33 -12 -1 -12
-5 -11 -19 6 -14 16 -21 19 -30 10 -6 -6 -11 -7 -11 -1 0 5 -13 9 -30 10 -18
1 -27 -3 -23 -9 4 -6 0 -8 -10 -4 -13 5 -17 1 -17 -16 l-1 -22 -17 21 c-10 11
-24 18 -31 16 -8 -3 -25 8 -38 24 -21 27 -23 28 -23 7 0 -28 -17 -38 -35 -23
-12 10 -16 9 -21 -4 -3 -9 -4 -23 0 -31 3 -8 3 -15 0 -15 -3 0 -15 21 -26 47
l-22 48 -7 -33 c-9 -46 -18 -51 -25 -14 -4 18 -10 29 -15 26 -5 -3 -9 2 -9 12
0 13 -4 11 -20 -7 -14 -17 -19 -20 -20 -9 0 10 -9 4 -25 -15 l-26 -30 7 34 c4
23 3 31 -5 27 -18 -12 -51 4 -51 24 0 29 -14 31 -64 13 -58 -22 -68 -13 -55
46 6 28 6 48 0 54 -13 13 -65 0 -95 -24 -41 -33 -113 -131 -141 -194 -27 -61
-45 -70 -26 -13 12 35 53 98 111 169 32 40 33 41 7 24 -27 -17 -27 -17 -25 6
3 20 -1 23 -32 24 -31 0 -35 3 -38 29 -4 28 -4 28 -59 21 -53 -6 -55 -6 -48
15 7 20 2 19 -64 -15 -43 -23 -89 -57 -115 -86 -44 -49 -56 -57 -56 -40 0 29
119 120 228 175 30 15 51 32 49 39 -6 17 -65 12 -117 -11 -51 -22 -70 -19 -70
10 0 15 -4 18 -17 13 -43 -18 -78 1 -69 38 5 22 -4 21 -89 -2 -38 -11 -72 -18
-74 -16 -5 6 8 11 104 38 l80 23 41 74 c23 41 40 77 38 79 -5 6 -88 -46 -108
-68 -30 -33 -37 -25 -34 36 3 57 3 58 -27 64 -30 7 -30 7 -3 8 15 0 33 8 40
17 7 9 33 38 57 66 37 40 42 51 30 59 -20 13 -57 3 -104 -29 -62 -42 -68 -46
-61 -34 3 6 0 17 -9 25 -8 8 -16 26 -19 41 -2 14 -7 30 -11 36 -3 5 0 20 6 32
11 21 11 22 -5 9 -14 -12 -16 -12 -11 1 13 32 280 179 323 177 10 0 38 -26 64
-58 124 -155 335 -220 508 -157 36 13 72 26 81 30 10 5 19 -1 26 -16 9 -21 11
-17 24 32 26 105 12 249 -35 350 -18 40 -100 115 -153 140 -58 28 -190 39
-249 20 -64 -20 -173 -74 -179 -89 -4 -11 -1 -11 17 1 28 18 134 58 151 57 7
0 2 -4 -11 -9 -48 -20 -114 -73 -163 -133 -28 -34 -70 -77 -93 -94 -41 -32
-63 -42 -51 -23 9 14 4 13 -49 -11 -26 -11 -52 -19 -59 -16 -7 2 -31 -6 -54
-19 -24 -12 -43 -18 -43 -13 0 11 -156 -66 -166 -82 -5 -9 -2 -10 9 -6 10 4
25 10 35 13 9 4 -8 -19 -38 -50 -30 -31 -60 -56 -67 -56 -20 0 37 106 88 164
29 32 36 45 21 37 -28 -15 -28 -5 1 20 l22 20 -35 -16 -35 -16 30 26 c17 14
60 37 98 52 37 14 67 28 67 31 0 5 -41 -2 -75 -13 -11 -3 -4 3 15 15 31 19 32
20 8 16 -14 -3 -34 -8 -45 -11 -10 -4 29 19 87 49 123 64 125 73 3 16 -47 -22
-90 -40 -94 -40 -5 0 11 19 34 43 69 68 70 89 20 243 -23 72 -50 173 -59 225
-19 102 -24 321 -11 429 l8 65 -36 -58 c-19 -32 -35 -60 -35 -62 0 -2 -17 -31
-38 -64 -22 -32 -45 -73 -52 -91 -8 -20 -16 -27 -20 -20 -8 14 -46 -80 -86
-215 -26 -86 -27 -102 -32 -375 -4 -299 4 -428 35 -509 23 -63 86 -181 144
-271 32 -48 38 -63 19 -40 -17 19 -30 37 -30 41 0 4 -7 10 -16 13 -17 7 -13
-2 22 -51 13 -17 24 -35 24 -39 0 -4 8 -17 17 -28 12 -14 9 -13 -11 4 -15 14
-40 45 -54 69 -25 42 -45 44 -23 2 14 -25 14 -44 1 -36 -6 4 -9 -12 -8 -39 1
-25 6 -42 12 -39 5 3 6 1 2 -6 -11 -17 55 -128 119 -198 63 -70 181 -162 286
-224 144 -84 395 -183 495 -194 27 -3 92 -14 144 -25 342 -68 788 -72 1108
-11 79 15 92 16 92 3 0 -48 358 90 514 198 128 89 191 166 216 268 13 50 24
53 39 11 32 -94 -8 -236 -88 -313 -39 -37 -39 -30 -2 31 30 48 63 138 75 202
l6 34 -21 -27 c-11 -14 -17 -30 -14 -36 4 -6 3 -10 -2 -8 -4 1 -44 -34 -89
-78 -91 -90 -198 -157 -342 -216 -381 -156 -796 -195 -1312 -122 -620 88
-1167 408 -1254 735 -8 30 -26 80 -40 111 -73 162 -108 365 -109 618 -1 218
11 318 63 537 99 410 280 740 545 991 156 148 324 247 540 317 233 76 454 100
693 75z m-760 -1871 c2 -19 -4 -33 -23 -48 -78 -60 -192 -17 -122 46 30 28 45
32 97 30 41 -2 45 -5 48 -28z m1186 -165 c33 -33 6 -74 -63 -95 -56 -17 -94
-1 -89 39 2 21 13 32 48 50 52 26 83 28 104 6z m-1278 -108 c54 -14 135 -27
178 -30 44 -4 81 -8 84 -10 10 -11 -67 -39 -118 -43 -70 -7 -157 17 -217 58
-40 28 -55 49 -34 49 4 0 53 -11 107 -24z m-736 -69 c0 -2 -10 -12 -22 -23
l-23 -19 19 23 c18 21 26 27 26 19z m1928 -121 c46 -13 63 -15 146 -17 48 -2
91 -6 97 -10 21 -13 -72 -39 -141 -39 -78 0 -166 27 -196 61 l-19 21 45 -5
c25 -2 55 -7 68 -11z m-1863 -366 c10 -11 16 -20 13 -20 -3 0 -13 9 -23 20
-10 11 -16 20 -13 20 3 0 13 -9 23 -20z m145 -349 c327 -230 791 -364 1306
-378 284 -8 461 9 699 66 28 7 42 7 47 -2 5 -8 14 -5 30 9 13 11 64 36 113 54
191 70 328 153 426 258 64 67 70 68 17 1 -35 -46 -152 -135 -238 -182 -36 -20
-116 -56 -179 -81 -63 -25 -122 -53 -132 -62 -9 -8 -30 -14 -46 -13 -59 4 -71
0 -82 -33 l-11 -31 -23 21 c-30 28 -43 28 -102 -3 -36 -18 -52 -21 -62 -13 -9
7 -60 7 -179 -2 -258 -20 -528 0 -827 60 -263 53 -503 147 -698 271 -42 27
-79 49 -82 49 -4 0 -7 -27 -7 -60 0 -33 -4 -60 -10 -60 -6 0 -10 31 -10 73 l0
72 -69 62 c-38 34 -84 82 -102 105 -22 29 -4 15 57 -43 49 -47 123 -109 164
-138z m355 -455 c18 -13 18 -14 -8 -9 -15 3 -27 9 -27 14 0 13 13 11 35 -5z
m-608 -256 c98 -34 105 -63 25 -102 -46 -22 -143 -110 -195 -178 -15 -19 -24
-28 -22 -20 4 10 -1 16 -12 16 -30 1 -45 8 -69 32 -13 13 -29 20 -34 17 -5 -3
-19 3 -31 14 -12 11 -35 23 -50 26 l-29 7 20 37 c34 68 118 122 240 155 74 20
91 19 157 -4z m18 -167 c-4 -10 -15 -49 -24 -86 -20 -79 -33 -92 -73 -71 -16
8 -33 12 -39 8 -6 -3 -1 13 11 36 35 68 150 172 125 113z m-508 -115 c-3 -8
-6 -5 -6 6 -1 11 2 17 5 13 3 -3 4 -12 1 -19z m67 -153 c3 -8 1 -15 -4 -15 -6
0 -10 7 -10 15 0 8 2 15 4 15 2 0 6 -7 10 -15z m3323 -157 c-3 -8 -6 -5 -6 6
-1 11 2 17 5 13 3 -3 4 -12 1 -19z m10 -50 c-3 -7 -5 -2 -5 12 0 14 2 19 5 13
2 -7 2 -19 0 -25z m50 -129 c-28 -16 -148 -39 -202 -38 -47 2 -45 2 20 10 39
4 88 14 110 21 22 8 51 14 65 16 22 1 23 0 7 -9z"/>
<path d="M2198 4710 c-48 -16 -122 -45 -163 -64 -83 -38 -87 -47 -64 -130 16
-58 5 -81 -59 -125 -32 -21 -64 -46 -71 -55 -7 -9 -19 -16 -25 -16 -6 0 -2 7
8 15 11 8 15 15 9 15 -11 0 -40 -29 -45 -45 -2 -5 -6 -9 -11 -7 -4 1 -6 -3 -5
-9 2 -6 -6 -13 -17 -15 -18 -3 -45 -29 -45 -45 0 -4 80 -71 178 -149 176 -142
233 -177 304 -187 l36 -5 -8 38 c-10 44 -4 58 13 29 6 -11 33 -44 60 -73 28
-29 47 -55 44 -59 -4 -3 -25 6 -46 20 -30 20 -39 23 -34 10 6 -14 -1 -15 -55
-10 l-62 7 24 -38 c14 -20 29 -56 34 -79 5 -22 24 -67 42 -100 18 -32 42 -75
53 -95 10 -21 23 -38 28 -38 10 0 40 -57 70 -132 l20 -53 -36 43 c-20 23 -45
47 -56 52 -17 10 -18 8 -9 -15 6 -15 24 -47 41 -71 17 -25 39 -65 50 -89 20
-44 36 -62 25 -27 -3 9 -8 55 -12 102 -3 46 -7 87 -10 91 -11 18 -34 173 -49
326 -5 48 10 59 69 47 29 -5 38 -13 48 -40 6 -19 15 -34 19 -34 8 0 16 -33 24
-105 12 -100 26 -177 35 -193 4 -9 11 -26 15 -36 3 -10 7 -17 10 -15 5 6 18
219 19 314 1 39 5 73 10 76 4 4 26 2 49 -3 22 -5 53 -6 69 -3 25 6 28 4 28
-19 0 -55 -39 -218 -54 -228 -8 -5 -8 -8 0 -8 8 0 9 -14 2 -47 -8 -42 -11 -76
-21 -218 -1 -16 -6 -33 -11 -36 -5 -4 -5 -12 -1 -19 6 -9 12 -5 22 14 8 14 11
31 8 36 -3 5 3 13 12 19 11 6 13 11 5 11 -7 0 -10 5 -7 10 4 6 11 8 16 4 6 -3
5 2 -1 13 -12 19 6 81 54 188 8 17 27 75 42 129 16 54 34 106 40 114 12 17 47
12 79 -11 19 -15 19 -16 -12 -79 -17 -36 -39 -94 -48 -129 -9 -35 -23 -78 -29
-94 -11 -25 -11 -33 1 -43 11 -11 14 -10 19 5 10 33 38 87 102 196 69 117 90
134 152 122 19 -4 45 -7 57 -7 25 0 23 -12 -14 -73 -41 -67 -127 -228 -147
-275 -10 -25 -27 -63 -37 -86 -23 -50 -52 -144 -46 -150 3 -3 32 28 66 68 34
40 68 80 77 89 12 13 12 18 2 21 -19 7 10 46 99 133 42 42 73 78 70 81 -4 4
-14 1 -24 -7 -13 -10 -11 -6 4 17 35 49 84 94 138 125 l50 29 -41 -6 c-46 -7
-74 5 -148 61 -37 28 -46 32 -46 17 -1 -12 -13 -4 -42 28 -29 32 -39 39 -34
23 11 -36 -10 -27 -39 14 -16 24 -25 31 -25 20 0 -21 -9 -21 -40 0 l-25 16 24
-26 c14 -15 22 -27 19 -27 -9 0 -102 52 -120 68 -15 13 -18 12 -24 -12 -3 -14
-8 -26 -10 -26 -1 0 -18 9 -37 20 -20 12 -49 25 -67 30 -28 8 -30 7 -18 -7 12
-14 10 -14 -19 0 -18 10 -40 17 -50 17 -10 0 -37 11 -60 25 -48 26 -54 23 -21
-12 12 -13 20 -25 17 -27 -11 -10 -147 57 -172 85 -16 17 -27 33 -24 35 2 3
31 -9 65 -26 33 -16 63 -30 66 -30 3 0 2 15 0 33 -3 17 0 46 6 62 l12 30 19
-37 c21 -40 56 -69 107 -86 32 -11 33 -10 26 11 l-6 22 23 -20 c13 -12 33 -27
43 -35 18 -14 19 -14 8 7 -19 34 -14 36 23 7 36 -27 42 -26 25 7 -15 27 2 24
20 -3 14 -23 15 -23 20 12 l6 35 21 -40 c11 -22 30 -49 42 -59 l21 -19 0 44
c1 24 7 55 15 69 l14 25 1 -30 c0 -16 11 -47 23 -68 l23 -38 19 43 c16 39 18
41 22 18 2 -14 6 -36 9 -50 l6 -25 10 25 c8 18 12 21 15 10 13 -36 36 -80 43
-80 4 0 11 15 14 33 l7 32 26 -50 c25 -48 26 -49 35 -25 10 25 10 25 21 -10
15 -43 63 -70 129 -70 26 0 135 25 255 59 254 72 413 114 515 136 l78 17 -16
29 c-8 16 -19 27 -23 24 -5 -2 -17 7 -27 23 -10 15 -34 43 -54 62 -21 19 -73
78 -116 130 -116 139 -141 165 -229 240 -77 65 -248 190 -259 190 -3 0 -6 -10
-7 -22 0 -13 -3 -17 -6 -10 -4 10 -8 10 -19 1 -11 -9 -14 -6 -15 17 -1 17 -3
22 -6 12 -6 -23 -23 -23 -23 -2 0 13 -3 14 -15 4 -12 -10 -16 -9 -21 3 -3 9
-12 13 -20 10 -8 -3 -14 0 -14 7 0 6 -5 8 -10 5 -6 -4 -16 -2 -23 3 -24 18
-95 29 -148 22 -30 -4 -79 -5 -109 -3 -30 2 -80 6 -110 8 -30 2 -86 8 -124 14
-50 8 -73 8 -83 0 -10 -9 -20 -7 -39 6 -15 9 -24 13 -21 9 5 -9 -67 -15 -177
-16 -31 0 -44 -3 -35 -9 8 -5 10 -9 4 -10 -114 -17 -146 -13 -172 19 -13 15
-23 41 -23 60 0 17 -3 32 -7 31 -5 0 -47 -13 -95 -29z m137 -776 c29 -19 29
-19 21 1 -7 19 -6 19 16 -1 13 -11 41 -31 63 -44 40 -23 74 -57 75 -74 0 -5
-6 -4 -12 1 -7 6 -46 20 -86 32 -85 26 -130 61 -138 111 -6 35 -6 35 13 14 10
-12 31 -30 48 -40z"/>
<path d="M1421 4226 c-7 -8 -20 -44 -31 -79 -19 -70 -18 -121 6 -195 8 -24 17
-96 20 -160 9 -188 11 -205 26 -216 8 -6 16 -15 18 -21 2 -5 26 -15 54 -20 57
-12 86 -26 106 -50 18 -22 -1 -35 -55 -35 -39 0 -54 7 -127 59 -18 13 -8 0 22
-27 59 -55 140 -93 193 -91 28 1 25 3 -15 11 -51 11 -65 28 -22 28 25 0 262
65 272 75 3 3 -12 5 -34 6 l-39 1 42 11 c47 14 65 27 37 28 -15 0 -14 2 6 10
14 6 43 14 65 19 l40 8 -34 1 c-44 1 -38 7 30 25 44 12 48 15 24 16 l-30 2 35
13 c19 7 46 14 60 14 14 1 20 5 14 9 -6 4 -23 31 -39 60 -16 29 -43 61 -60 72
-47 29 -51 25 -16 -15 17 -19 38 -49 47 -66 16 -31 12 -65 -6 -54 -5 3 -10 2
-10 -3 0 -6 -13 -15 -30 -20 -16 -6 -42 -22 -57 -37 -16 -14 -36 -24 -46 -21
-9 2 -15 0 -11 -5 13 -22 -21 -6 -64 30 -26 21 -65 48 -87 59 -42 22 -32 28
23 13 17 -5 32 -8 32 -6 0 2 -34 27 -75 56 -41 28 -75 55 -75 60 0 12 1 12 45
-7 54 -22 64 -12 19 21 -62 46 -63 48 -14 41 25 -4 65 -18 90 -32 l45 -25 -29
30 c-16 17 -58 45 -92 63 -48 25 -59 35 -46 40 13 5 9 8 -16 13 -55 12 -51 28
6 23 60 -6 60 5 0 21 -44 11 -82 31 -61 31 6 0 47 -7 90 -15 93 -18 86 -17 78
-5 -13 22 9 12 128 -58 74 -43 96 -61 60 -48 -20 7 41 -49 71 -66 26 -14 -27
53 -86 108 -85 81 -261 218 -340 265 -84 51 -135 62 -157 35z m294 -577 c61
-23 115 -63 115 -85 0 -15 -26 -20 -32 -6 -5 12 -90 78 -123 95 -42 22 -26 21
40 -4z m14 -45 c18 -14 37 -36 43 -48 10 -20 10 -20 -8 -5 -10 9 -41 31 -68
48 -44 28 -47 31 -24 31 15 0 40 -12 57 -26z m-33 -22 c60 -44 69 -58 49 -78
-15 -15 -18 -14 -50 24 -19 22 -53 47 -75 56 -22 9 -40 18 -40 21 0 3 17 5 38
5 27 0 51 -9 78 -28z m-100 -13 c55 -14 117 -76 90 -91 -12 -7 -27 -1 -56 22
-38 30 -64 42 -124 55 -23 5 -27 8 -15 16 19 12 51 11 105 -2z"/>
<path d="M4035 3756 c-60 -19 -155 -50 -210 -71 -100 -37 -255 -111 -255 -120
0 -3 17 3 38 14 118 59 324 101 435 87 85 -11 59 -26 -46 -27 l-92 -1 55 -12
c49 -10 128 -52 117 -62 -2 -2 -27 5 -55 16 -29 11 -62 20 -75 20 -12 0 8 -11
46 -24 58 -20 124 -62 113 -73 -2 -2 -23 6 -46 18 -63 33 -134 36 -220 10 -40
-12 -71 -24 -69 -26 2 -1 28 1 56 5 58 10 79 5 167 -34 73 -34 83 -28 15 8
-28 16 -48 30 -46 33 7 6 73 -23 109 -49 l32 -22 -30 -8 c-16 -4 -53 -4 -82 1
-29 4 -50 5 -45 1 17 -15 78 -30 127 -30 42 -1 48 -3 32 -12 -12 -6 -47 -9
-90 -6 l-71 6 45 -15 c26 -8 62 -12 85 -9 37 6 39 5 21 -9 -23 -17 -113 -20
-165 -5 -55 16 -21 -10 40 -30 l53 -18 -37 -7 c-24 -5 -53 -2 -83 9 -64 21
-86 20 -49 -2 30 -19 63 -52 51 -52 -9 0 -89 53 -97 64 -6 8 -73 3 -142 -11
-27 -5 -28 -3 -18 16 13 24 6 26 -35 11 -32 -13 -56 2 -36 22 7 7 12 20 12 29
0 10 12 27 28 39 26 20 26 21 2 9 -14 -6 -40 -25 -58 -42 -32 -31 -33 -31 -38
-9 -4 12 -10 19 -15 16 -5 -3 -9 5 -9 16 0 30 35 76 83 111 43 31 43 35 3 19
-18 -6 -26 -6 -26 1 0 13 -88 -49 -106 -76 -13 -17 -12 -22 3 -32 10 -8 12
-13 4 -13 -7 0 -9 -4 -6 -10 3 -5 1 -10 -4 -10 -20 0 -11 -15 22 -38 17 -12
52 -41 77 -63 44 -39 44 -40 15 -34 -16 4 -41 8 -55 11 -14 2 20 -17 75 -44
l100 -49 -85 4 -85 3 55 -20 c34 -12 80 -42 120 -77 36 -31 79 -65 95 -75 l30
-20 -48 7 c-27 4 -66 13 -88 20 -21 8 -39 12 -39 10 0 -7 53 -32 114 -54 53
-18 102 -49 93 -58 -2 -1 -41 6 -86 18 -45 11 -85 19 -87 16 -3 -2 29 -16 70
-31 41 -14 103 -40 138 -57 61 -29 62 -30 23 -24 l-40 5 50 -25 c54 -27 111
-35 84 -12 -8 6 -21 20 -28 29 -12 16 -10 19 10 27 l24 10 -26 0 c-14 1 -45
16 -69 34 -45 32 -45 32 -17 35 26 3 24 5 -34 48 -93 69 -149 123 -142 140 3
8 -1 22 -8 31 -13 15 -10 16 26 11 22 -3 48 -9 58 -13 32 -13 8 22 -26 38 -84
37 -85 37 -37 30 25 -4 55 -6 67 -6 25 1 91 -52 125 -99 19 -28 20 -31 4 -25
-17 7 -17 6 -5 -9 13 -16 11 -17 -13 -10 -40 9 -35 2 19 -30 79 -46 104 -39
117 29 2 15 7 31 10 36 4 5 -3 25 -14 44 -19 32 -19 36 -5 51 9 9 23 16 30 16
29 0 73 50 85 97 6 26 15 52 19 58 5 5 14 35 21 65 6 30 20 81 31 112 10 31
21 71 24 90 3 18 11 47 17 65 26 73 -49 82 -227 29z m-150 -513 c38 -28 46
-38 32 -41 -19 -4 -117 54 -117 69 0 19 37 7 85 -28z"/>
<path d="M4301 3689 c-5 -13 -17 -53 -25 -89 -45 -195 -97 -395 -121 -465 -15
-44 -28 -89 -29 -100 -2 -11 -8 -31 -15 -43 -7 -13 -11 -26 -8 -28 5 -6 84
164 108 235 32 93 67 238 89 374 21 125 21 165 1 116z"/>
<path d="M2672 3420 c0 -14 2 -19 5 -12 2 6 2 18 0 25 -3 6 -5 1 -5 -13z"/>
<path d="M1455 3413 c16 -44 24 -117 16 -153 -5 -22 -26 -62 -46 -90 l-38 -51
64 35 c35 19 65 42 67 51 2 8 10 15 18 15 8 0 14 10 14 25 0 25 0 25 27 8 l26
-17 -7 28 c-7 27 -5 28 19 22 72 -17 81 -18 63 -4 -10 7 -45 29 -78 48 -34 18
-78 49 -100 67 -43 37 -55 41 -45 16z m40 -213 c-3 -5 -16 -15 -28 -21 -19 -9
-19 -8 3 10 28 23 34 26 25 11z"/>
<path d="M2725 3280 c-3 -5 -1 -10 4 -10 6 0 11 5 11 10 0 6 -2 10 -4 10 -3 0
-8 -4 -11 -10z"/>
<path d="M3780 3106 c0 -13 158 -81 167 -72 4 4 -110 59 -146 71 -12 3 -21 4
-21 1z"/>
<path d="M2615 2520 c33 -3 69 -11 80 -17 17 -10 14 -13 -25 -24 -43 -12 -128
-16 -160 -7 -56 17 -71 19 -96 16 l-28 -3 42 -45 c100 -108 105 -116 79 -139
-15 -12 -90 -40 -125 -47 -118 -21 -151 -24 -200 -19 -53 6 -76 12 -127 31
-11 4 -26 6 -32 5 -7 -1 -13 3 -13 9 0 5 -5 10 -10 10 -6 0 -20 9 -32 20 -23
21 -63 27 -73 10 -9 -15 24 -72 65 -110 47 -45 116 -70 210 -77 61 -4 96 0
185 22 130 32 188 30 237 -7 166 -127 440 -146 550 -39 38 38 62 101 39 101
-7 0 -33 -9 -59 -20 -26 -11 -56 -18 -67 -17 -12 1 -19 -3 -17 -10 2 -14 -55
-19 -163 -14 -82 3 -125 16 -194 56 -116 68 -150 121 -92 145 16 6 41 24 56
40 15 16 40 32 55 35 39 9 67 41 54 63 -13 20 -95 42 -154 40 -42 -1 -40 -1
15 -8z"/>
<path d="M1890 2355 c0 -10 7 -15 18 -13 21 4 19 22 -2 26 -10 2 -16 -3 -16
-13z"/>
<path d="M3497 2223 c-4 -5 -4 -19 0 -31 4 -15 25 -28 77 -48 39 -15 80 -31
91 -37 17 -9 16 -5 -6 24 -46 60 -147 117 -162 92z"/>
<path d="M3323 1959 c3 -53 8 -65 40 -96 35 -36 36 -36 79 -24 24 7 54 21 67
32 23 19 23 20 5 40 -32 36 -127 95 -162 102 l-33 7 4 -61z"/>
<path d="M3204 1958 c-5 -7 -7 -27 -5 -45 3 -40 -16 -50 -65 -35 -19 5 -34 8
-34 5 0 -11 72 -133 79 -133 16 0 184 59 193 68 5 5 -13 29 -47 60 -82 76
-112 95 -121 80z"/>
<path d="M3341 1521 c-8 -5 -10 -14 -6 -21 6 -9 10 -8 17 4 12 21 7 28 -11 17z"/>
<path d="M3950 4685 c0 -2 21 -18 48 -35 39 -26 42 -27 17 -6 -54 47 -65 54
-65 41z"/>
<path d="M4050 4617 c0 -2 39 -35 88 -73 111 -87 305 -281 404 -404 191 -237
356 -538 447 -814 28 -86 51 -162 51 -170 0 -8 4 -17 9 -21 6 -3 1 27 -10 67
-116 422 -348 821 -659 1135 -109 111 -330 298 -330 280z"/>
<path d="M5060 3071 c0 -11 4 -22 9 -25 4 -3 6 6 3 19 -5 30 -12 33 -12 6z"/>
<path d="M5071 3014 c0 -11 3 -14 6 -6 3 7 2 16 -1 19 -3 4 -6 -2 -5 -13z"/>
<path d="M5082 2965 c0 -16 2 -22 5 -12 2 9 2 23 0 30 -3 6 -5 -1 -5 -18z"/>
<path d="M5092 2900 c0 -14 2 -19 5 -12 2 6 2 18 0 25 -3 6 -5 1 -5 -13z"/>
<path d="M5101 2844 c0 -11 3 -14 6 -6 3 7 2 16 -1 19 -3 4 -6 -2 -5 -13z"/>
<path d="M5102 2800 c0 -14 2 -19 5 -12 2 6 2 18 0 25 -3 6 -5 1 -5 -13z"/>
<path d="M5113 2670 c0 -47 2 -66 4 -42 2 23 2 61 0 85 -2 23 -4 4 -4 -43z"/>
<path d="M5113 2420 c0 -41 2 -58 4 -37 2 20 2 54 0 75 -2 20 -4 3 -4 -38z"/>
<path d="M513 2377 c-27 -12 -27 -13 -8 -92 8 -33 15 -88 15 -122 0 -59 1 -63
23 -62 12 1 42 -3 67 -9 60 -15 70 -15 70 3 0 19 5 19 40 -2 25 -14 31 -15 46
-2 9 8 31 14 48 14 l31 0 -3 75 c-4 125 -7 130 -88 156 -38 13 -86 23 -107 23
-21 1 -47 6 -58 12 -30 16 -52 18 -76 6z"/>
<path d="M5101 2294 c0 -11 3 -14 6 -6 3 7 2 16 -1 19 -3 4 -6 -2 -5 -13z"/>
<path d="M5101 2244 c0 -11 3 -14 6 -6 3 7 2 16 -1 19 -3 4 -6 -2 -5 -13z"/>
<path d="M31 2191 c-1 -33 21 -159 26 -145 2 6 -3 46 -11 90 -8 43 -15 68 -15
55z"/>
<path d="M5082 2125 c0 -16 2 -22 5 -12 2 9 2 23 0 30 -3 6 -5 -1 -5 -18z"/>
<path d="M522 2042 c-1 -20 -7 -62 -12 -93 -7 -37 -7 -89 0 -155 13 -120 10
-109 72 -270 44 -114 59 -140 109 -195 l58 -64 46 50 c26 28 55 64 66 82 20
31 73 84 118 115 20 14 22 20 11 33 -7 8 -21 15 -32 15 -11 0 -34 11 -50 26
-17 14 -37 23 -44 20 -16 -6 -22 12 -17 51 5 28 8 31 23 23 36 -19 37 18 5
127 -14 46 -16 48 -52 49 -21 0 -64 10 -95 22 -32 12 -78 22 -102 22 -33 0
-51 6 -65 21 -21 23 -37 95 -28 129 3 11 2 22 -2 24 -4 3 -8 -12 -9 -32z m312
-421 c3 -5 -3 -11 -13 -14 -14 -3 -18 -1 -14 9 6 16 19 18 27 5z m-133 -42
c-9 -9 -24 -16 -33 -16 -10 0 -14 6 -10 16 5 14 4 14 -14 1 -17 -13 -18 -13
-7 0 6 8 27 15 46 15 33 0 34 -1 18 -16z m40 -2 c-6 -8 -9 -16 -6 -19 3 -2 -2
-5 -10 -5 -20 0 -19 7 3 23 22 17 27 17 13 1z"/>
<path d="M5064 2035 c-3 -8 -4 -20 -2 -27 3 -7 7 -1 10 15 6 29 1 36 -8 12z"/>
<path d="M67 1979 c4 -13 8 -18 11 -10 2 7 -1 18 -6 23 -8 8 -9 4 -5 -13z"/>
<path d="M81 1937 c-1 -22 40 -169 46 -164 2 2 -8 44 -21 93 -14 49 -25 81
-25 71z"/>
<path d="M5031 1903 c0 -6 -4 -20 -7 -30 -5 -14 -4 -15 5 -7 7 7 11 20 8 30
-3 11 -5 14 -6 7z"/>
<path d="M5006 1815 c-9 -26 -7 -32 5 -12 6 10 9 21 6 23 -2 3 -7 -2 -11 -11z"/>
<path d="M4981 1743 c-1 -6 -4 -20 -7 -30 -5 -17 -5 -17 6 0 6 10 9 23 6 30
-3 9 -5 9 -5 0z"/>
<path d="M161 1675 c1 -19 18 -51 18 -35 0 8 -4 22 -9 30 -5 8 -9 11 -9 5z"/>
<path d="M4916 1574 c-4 -9 -4 -19 -1 -22 2 -3 7 3 11 12 4 9 4 19 1 22 -2 3
-7 -3 -11 -12z"/>
<path d="M240 1481 c0 -6 4 -13 10 -16 6 -3 7 1 4 9 -7 18 -14 21 -14 7z"/>
<path d="M4866 1463 c-6 -14 -5 -15 5 -6 7 7 10 15 7 18 -3 3 -9 -2 -12 -12z"/>
<path d="M4755 1259 c-4 -6 -5 -12 -2 -15 2 -3 7 2 10 11 7 17 1 20 -8 4z"/>
<path d="M4000 1256 c0 -2 11 -6 25 -8 13 -3 22 -1 19 3 -5 9 -44 13 -44 5z"/>
<path d="M4102 1204 c10 -10 20 -16 22 -13 3 3 -5 11 -17 18 -21 13 -21 12 -5
-5z"/>
<path d="M2370 1160 l-935 -5 -48 -28 c-129 -76 -199 -281 -165 -484 27 -156
92 -261 195 -313 l48 -25 1102 -3 1101 -2 32 26 c64 54 71 81 101 414 16 168
29 318 29 333 0 20 -11 40 -35 64 l-34 34 -228 -3 c-126 -2 -649 -5 -1163 -8z
m-435 -139 c-17 -10 -55 -45 -83 -77 l-53 -59 -122 -5 -122 -5 -3 -32 -3 -33
135 0 136 0 0 -80 0 -80 -135 0 -135 0 0 -28 c0 -47 14 -52 137 -52 l113 0 19
-39 c26 -50 69 -101 95 -111 12 -5 -73 -9 -207 -9 -249 -1 -262 1 -310 59 -39
46 -50 115 -45 290 4 164 11 191 60 237 12 12 34 26 48 32 14 5 130 10 265 10
238 1 240 1 210 -18z m625 0 c0 -5 -9 -12 -19 -16 -17 -5 -59 -47 -118 -118
-22 -27 -25 -27 -142 -27 -99 0 -120 -3 -125 -16 -3 -9 -6 -67 -6 -129 0 -90
3 -117 16 -129 12 -13 41 -16 150 -16 78 0 144 5 156 11 11 6 22 9 24 6 7 -6
-41 -112 -66 -147 l-21 -30 -168 0 c-158 0 -170 1 -201 23 -76 51 -89 95 -90
292 0 157 9 202 48 246 47 52 83 58 335 59 134 0 227 -4 227 -9z m549 -278
c57 -153 112 -290 123 -305 l19 -28 -109 0 -108 0 -15 31 c-8 18 -17 31 -21
30 -5 0 -69 -1 -143 -1 l-135 0 -6 -30 -6 -30 -114 0 -114 0 14 23 c8 12 56
135 106 272 51 138 98 265 106 283 l13 32 144 0 144 0 102 -277z m671 271 c0
-3 -26 -39 -57 -80 l-57 -74 -53 0 -53 0 0 -213 c0 -152 3 -216 12 -225 9 -9
-15 -12 -107 -12 l-120 0 3 225 3 225 -53 0 -53 0 -50 66 c-27 37 -54 73 -58
80 -7 12 44 14 318 14 179 0 325 -3 325 -6z"/>
<path d="M2849 834 c-41 -107 -69 -187 -66 -191 3 -2 40 -3 84 -1 l80 3 -39
105 c-22 58 -41 107 -44 109 -2 2 -8 -9 -15 -25z"/>
<path d="M4511 927 c-13 -21 -12 -21 5 -5 10 10 16 20 13 22 -3 3 -11 -5 -18
-17z"/>
<path d="M4445 860 c-10 -11 -14 -20 -9 -20 5 0 15 9 22 20 7 11 11 20 9 20
-2 0 -12 -9 -22 -20z"/>
<path d="M4239 443 c-13 -16 -12 -17 4 -4 16 13 21 21 13 21 -2 0 -10 -8 -17
-17z"/>
<path d="M1667 179 c7 -7 15 -10 18 -7 3 3 -2 9 -12 12 -14 6 -15 5 -6 -5z"/>
<path d="M3465 180 c-16 -7 -17 -9 -3 -9 9 -1 20 4 23 9 7 11 7 11 -20 0z"/>
<path d="M1720 160 c8 -5 22 -9 30 -9 10 0 8 3 -5 9 -27 12 -43 12 -25 0z"/>
<path d="M2268 33 c7 -3 16 -2 19 1 4 3 -2 6 -13 5 -11 0 -14 -3 -6 -6z"/>
<path d="M2868 33 c7 -3 16 -2 19 1 4 3 -2 6 -13 5 -11 0 -14 -3 -6 -6z"/>
<path d="M2393 23 c9 -2 25 -2 35 0 9 3 1 5 -18 5 -19 0 -27 -2 -17 -5z"/>
<path d="M2723 23 c9 -2 23 -2 30 0 6 3 -1 5 -18 5 -16 0 -22 -2 -12 -5z"/>
<path d="M2573 13 c9 -2 23 -2 30 0 6 3 -1 5 -18 5 -16 0 -22 -2 -12 -5z"/>
</g>
</svg>
