<svg xmlns="http://www.w3.org/2000/svg" xmlns:svg="http://www.w3.org/2000/svg" xmlns:rdf="http://www.w3.org/1999/02/22-rdf-syntax-ns#" xmlns:cc="http://creativecommons.org/ns#" xmlns:dc="http://purl.org/dc/elements/1.1/" id="Layer_1" data-name="Layer 1" viewBox="0 0 1526.6414 477.9" width="1526.6415" height="477.89999"><defs id="defs879"><style id="style872">.cls-1{font-size:353.73px;font-family:Montserrat-Bold, Montserrat;font-weight:700;}.cls-2{letter-spacing:-0.02em;}.cls-3{letter-spacing:0.04em;}.cls-4{fill:url(#linear-gradient);}.cls-5{fill:#fff;}</style><linearGradient id="linear-gradient" x1="7.6399999" y1="11.92" x2="707.15997" y2="698.48999" gradientUnits="userSpaceOnUse"><stop offset="0" stop-color="#3b916f" id="stop874"></stop><stop offset="1" stop-color="#096aa5" id="stop876"></stop></linearGradient></defs><title id="title881">Coinsult </title><path class="cls-4" d="M 155.66,0 H 477.9 V 322.24 A 155.66,155.66 0 0 1 322.24,477.9 H 0 V 155.66 A 155.66,155.66 0 0 1 155.66,0 Z" id="path893" style="fill:url(#linear-gradient)"></path><path class="cls-5" d="m 377.57,188.06 v 0 l -31.95,14.64 -22.43,10.28 -1,0.45 -30.84,13.93 c 0,-0.12 -0.05,-0.24 -0.09,-0.36 a 51.82,51.82 0 0 0 -10.27,-20.71 l -2.85,-6.23 30.77,-14.1 22.76,-10.43 32.23,-14.77 q 2.68,4.18 5,8.55 l 8.42,18.37 z" id="path895"></path><path class="cls-5" d="m 382.78,272.47 a 145.64,145.64 0 0 1 -10.25,29.22 l -99.93,-17.06 0.94,-5.51 a 51.53,51.53 0 0 0 16,-22.56 z" id="path897"></path><path class="cls-5" d="m 202.66,288.36 -40.37,28.59 -28.86,20.44 a 146.14,146.14 0 0 1 -18.15,-24.55 l 28.71,-20.34 20.17,-14.29 20.86,-14.77 z" id="path899"></path><path class="cls-5" d="m 206.51,162.79 -12.48,27.86 -18.28,-8.19 -23.15,-10.37 -32.59,-14.61 a 145.39,145.39 0 0 1 20.54,-24.25 l 35.56,15.93 27.19,12.2 z" id="path901"></path><path class="cls-5" d="m 348.19,266.56 a 110.78,110.78 0 0 1 -185.9,50.42 111.25,111.25 0 0 1 -18.3,-24.44 l -28.71,20.34 a 145.7,145.7 0 0 0 267.5,-40.41 z" id="path903"></path><path class="cls-5" d="m 176.11,149.16 a 110.84,110.84 0 0 1 169.51,53.55 l 31.95,-14.64 c -0.06,-0.15 -0.11,-0.3 -0.17,-0.44 l -8.42,-18.37 q -2.37,-4.36 -5,-8.55 a 145.85,145.85 0 0 0 -243.91,-3.23 l 32.59,14.61 a 110.75,110.75 0 0 1 23.45,-22.93 z" id="path905"></path><path class="cls-5" d="m 132.2,217.78 a 111.7,111.7 0 0 1 5.26,-18.43 l -32,-14.34 a 146.23,146.23 0 0 0 -3.1,99.32 l 30.36,-21.5 a 110.52,110.52 0 0 1 -0.52,-45.05 z" id="path907"></path><polyline class="cls-5" points="344.02 198.43 321.99 209.5 321.03 209.99 290.81 225.16" id="polyline909"></polyline><path class="cls-5" d="m 183.56,264.22 -19.51,13.82 a 85.61,85.61 0 0 1 -9,-31 l 10.88,-7.7 z" id="path911"></path><path class="cls-5" d="m 198.23,193.12 -12.48,27.86 -25.86,-11.62 a 85.49,85.49 0 0 1 15.48,-26.52 z" id="path913"></path><path class="cls-5" d="m 323.91,262.42 a 86.23,86.23 0 0 1 -159.74,15.84 0.84,0.84 0 0 1 -0.11,-0.21 86.26,86.26 0 0 1 11.33,-95.16 l 0.37,-0.42 A 86.28,86.28 0 0 1 323.19,213 v 0 l -1,0.44 -30.84,13.92 c 0,-0.12 -0.05,-0.24 -0.09,-0.36 a 51.77,51.77 0 1 0 -1.69,29.6 z" id="path915"></path><metadata></metadata><g aria-label="Security Audit byCoinsult" id="text2624" style="font-size:90.9754px;line-height:1.15;fill:#ffffff;stroke-width:2.27439"><path d="m 611.06804,166.5803 q -8.648,0 -14.72,-2.76 -5.98,-2.852 -9.108,-7.728 -3.128,-4.968 -3.128,-11.224 h 10.856 q 0,2.852 1.564,5.612 1.564,2.76 5.06,4.6 3.496,1.748 9.476,1.748 5.428,0 8.924,-1.564 3.588,-1.564 5.244,-4.14 1.748,-2.576 1.748,-5.704 0,-3.864 -3.312,-6.256 -3.312,-2.484 -9.936,-3.036 l -6.716,-0.644 q -9.292,-0.736 -14.812,-5.704 -5.52,-5.06 -5.52,-13.248 0,-6.256 2.944,-10.856 3.036,-4.6 8.464,-7.175999 5.428,-2.668 12.604,-2.668 7.36,0 12.788,2.668 5.428,2.575999 8.372,7.359999 3.036,4.692 3.036,11.224 h -10.856 q 0,-2.944 -1.472,-5.52 -1.38,-2.668 -4.324,-4.324 -2.944,-1.656 -7.544,-1.656 -4.416,0 -7.36,1.564 -2.852,1.564 -4.324,4.048 -1.472,2.484 -1.472,5.336 0,3.404 2.576,6.072 2.576,2.576 7.912,3.036 l 6.624,0.552 q 7.084,0.552 12.236,3.036 5.244,2.392 8.096,6.44 2.944,4.048 2.944,9.752 0,6.256 -3.404,11.04 -3.312,4.784 -9.384,7.452 -5.98,2.668 -14.076,2.668 z" style="font-weight:500;font-size:92px;font-family:Sora;-inkscape-font-specification:'Sora Medium'" id="path40221"></path><path d="m 671.97197,166.5803 q -6.44,0 -11.224,-2.208 -4.784,-2.208 -7.82,-5.796 -3.036,-3.68 -4.6,-8.188 -1.472,-4.6 -1.472,-9.384 v -1.748 q 0,-4.876 1.472,-9.384 1.564,-4.6 4.6,-8.188 3.036,-3.68 7.636,-5.796 4.692,-2.208 10.856,-2.208 8.004,0 13.34,3.496 5.336,3.496 8.004,9.108 2.668,5.52 2.668,11.96 v 4.324 h -43.976 v -7.268 h 36.708 l -2.944,3.68 q 0,-4.968 -1.564,-8.556 -1.564,-3.68 -4.6,-5.612 -3.036,-2.024 -7.636,-2.024 -4.784,0 -8.004,2.208 -3.22,2.208 -4.784,6.072 -1.564,3.864 -1.564,9.108 0,4.968 1.564,8.924 1.564,3.864 4.876,6.164 3.312,2.208 8.464,2.208 5.152,0 8.464,-2.208 3.312,-2.3 4.048,-5.336 h 10.028 q -1.012,5.06 -4.14,8.832 -3.036,3.772 -7.728,5.796 -4.692,2.024 -10.672,2.024 z" style="font-weight:500;font-size:92px;font-family:Sora;-inkscape-font-specification:'Sora Medium'" id="path40223"></path><path d="m 728.5519,166.5803 q -6.348,0 -11.132,-2.116 -4.692,-2.208 -7.82,-5.888 -3.036,-3.772 -4.6,-8.28 -1.472,-4.6 -1.472,-9.292 v -1.656 q 0,-4.876 1.564,-9.384 1.564,-4.6 4.692,-8.28 3.128,-3.68 7.728,-5.796 4.692,-2.208 10.948,-2.208 6.348,0 11.316,2.392 5.06,2.392 8.096,6.808 3.036,4.324 3.404,10.12 h -10.396 q -0.552,-4.14 -3.772,-6.992 -3.128,-2.852 -8.648,-2.852 -4.784,0 -7.912,2.208 -3.128,2.208 -4.692,6.072 -1.564,3.772 -1.564,8.74 0,4.784 1.472,8.648 1.564,3.864 4.692,6.072 3.22,2.208 8.096,2.208 3.772,0 6.44,-1.288 2.76,-1.38 4.416,-3.588 1.656,-2.3 1.932,-5.244 h 10.488 q -0.276,5.98 -3.404,10.396 -3.128,4.324 -8.28,6.808 -5.152,2.392 -11.592,2.392 z" style="font-weight:500;font-size:92px;font-family:Sora;-inkscape-font-specification:'Sora Medium'" id="path40225"></path><path d="m 779.97988,166.3963 q -8.74,0 -13.432,-5.612 -4.692,-5.704 -4.692,-16.744 v -28.704 h 10.764 v 30.176 q 0,5.152 2.852,8.188 2.852,2.944 7.728,2.944 4.968,0 8.096,-3.128 3.22,-3.22 3.22,-8.74 v -29.44 h 10.764 v 49.588 h -8.556 v -21.16 h 1.104 q 0,7.452 -2.024,12.512 -1.932,4.968 -5.796,7.544 -3.772,2.576 -9.568,2.576 z" style="font-weight:500;font-size:92px;font-family:Sora;-inkscape-font-specification:'Sora Medium'" id="path40227"></path><path d="m 821.28795,164.9243 v -49.588 h 8.556 v 20.7 h -0.368 q 0,-10.672 4.692,-15.916 4.692,-5.336 13.892,-5.336 h 1.748 v 9.476 h -3.312 q -6.992,0 -10.764,3.772 -3.68,3.68 -3.68,10.58 v 26.312 z" style="font-weight:500;font-size:92px;font-family:Sora;-inkscape-font-specification:'Sora Medium'" id="path40229"></path><path d="m 861.76793,164.9243 v -49.588 h 10.764 v 49.588 z m -7.268,-41.308 v -8.28 h 18.032 v 8.28 z m 10.764,-15.18 q -3.312,0 -4.968,-1.748 -1.564,-1.748 -1.564,-4.508 0,-2.667999 1.564,-4.415999 1.656,-1.84 4.968,-1.84 3.404,0 4.968,1.84 1.656,1.748 1.656,4.415999 0,2.76 -1.656,4.508 -1.564,1.748 -4.968,1.748 z" style="font-weight:500;font-size:92px;font-family:Sora;-inkscape-font-specification:'Sora Medium'" id="path40231"></path><path d="m 908.87187,165.4763 q -6.164,0 -10.396,-1.656 -4.232,-1.656 -6.44,-5.704 -2.116,-4.048 -2.116,-10.948 v -46.276 h 10.212 v 47.196 q 0,3.864 2.024,5.98 2.116,2.024 5.888,2.024 h 8.28 v 9.384 z m -27.14,-42.136 v -8.004 h 34.592 v 8.004 z" style="font-weight:500;font-size:92px;font-family:Sora;-inkscape-font-specification:'Sora Medium'" id="path40233"></path><path d="m 925.61595,184.3363 v -9.476 h 8.188 q 2.852,0 4.876,-0.736 2.024,-0.644 3.312,-2.392 1.288,-1.656 2.116,-4.508 l 14.444,-51.888 h 10.396 l -15.64,54.464 q -1.472,5.152 -4.14,8.372 -2.576,3.22 -6.624,4.692 -3.956,1.472 -9.568,1.472 z m 15.272,-20.516 v -8.74 h 10.672 v 8.74 z m -2.668,0 -16.836,-48.484 h 10.948 l 16.1,48.484 z" style="font-weight:500;font-size:92px;font-family:Sora;-inkscape-font-specification:'Sora Medium'" id="path40235"></path><path d="M 993.69599,164.9243 1017.248,97.764301 h 18.308 l 24.288,67.159999 h -11.408 l -21.252,-59.8 4.508,2.116 h -11.132 l 4.784,-2.116 -20.608,59.8 z m 15.27201,-18.952 3.496,-9.568 h 28.152 l 3.588,9.568 z" style="font-weight:500;font-size:92px;font-family:Sora;-inkscape-font-specification:'Sora Medium'" id="path40237"></path><path d="m 1086.2479,166.3963 q -8.74,0 -13.432,-5.612 -4.692,-5.704 -4.692,-16.744 v -28.704 h 10.764 v 30.176 q 0,5.152 2.852,8.188 2.852,2.944 7.728,2.944 4.968,0 8.096,-3.128 3.22,-3.22 3.22,-8.74 v -29.44 h 10.764 v 49.588 h -8.556 v -21.16 h 1.104 q 0,7.452 -2.024,12.512 -1.932,4.968 -5.796,7.544 -3.772,2.576 -9.568,2.576 z" style="font-weight:500;font-size:92px;font-family:Sora;-inkscape-font-specification:'Sora Medium'" id="path40239"></path><path d="m 1148.164,166.5803 q -5.336,0 -9.752,-1.932 -4.324,-1.932 -7.636,-5.428 -3.22,-3.496 -4.968,-8.096 -1.748,-4.6 -1.748,-10.028 v -1.748 q 0,-5.336 1.656,-9.936 1.748,-4.692 4.876,-8.188 3.128,-3.496 7.452,-5.428 4.416,-2.024 9.752,-2.024 5.704,0 10.212,2.484 4.6,2.392 7.36,7.452 2.852,4.968 3.128,12.696 l -3.68,-5.06 V 97.764301 h 10.764 V 164.9243 h -8.556 v -21.528 h 2.392 q -0.276,8.004 -3.312,13.156 -2.944,5.152 -7.636,7.636 -4.692,2.392 -10.304,2.392 z m 2.024,-9.292 q 4.14,0 7.452,-1.84 3.404,-1.84 5.428,-5.336 2.116,-3.588 2.116,-8.372 v -3.956 q 0,-4.692 -2.116,-8.004 -2.116,-3.312 -5.52,-5.06 -3.404,-1.748 -7.452,-1.748 -4.508,0 -8.004,2.208 -3.404,2.116 -5.336,5.98 -1.932,3.864 -1.932,9.016 0,5.244 1.932,9.108 2.024,3.864 5.52,5.98 3.496,2.024 7.912,2.024 z" style="font-weight:500;font-size:92px;font-family:Sora;-inkscape-font-specification:'Sora Medium'" id="path40241"></path><path d="m 1193.796,164.9243 v -49.588 h 10.764 v 49.588 z m -7.268,-41.308 v -8.28 h 18.032 v 8.28 z m 10.764,-15.18 q -3.312,0 -4.968,-1.748 -1.564,-1.748 -1.564,-4.508 0,-2.667999 1.564,-4.415999 1.656,-1.84 4.968,-1.84 3.404,0 4.968,1.84 1.656,1.748 1.656,4.415999 0,2.76 -1.656,4.508 -1.564,1.748 -4.968,1.748 z" style="font-weight:500;font-size:92px;font-family:Sora;-inkscape-font-specification:'Sora Medium'" id="path40243"></path><path d="m 1240.8999,165.4763 q -6.164,0 -10.396,-1.656 -4.232,-1.656 -6.44,-5.704 -2.116,-4.048 -2.116,-10.948 v -46.276 h 10.212 v 47.196 q 0,3.864 2.024,5.98 2.116,2.024 5.888,2.024 h 8.28 v 9.384 z m -27.14,-42.136 v -8.004 h 34.592 v 8.004 z" style="font-weight:500;font-size:92px;font-family:Sora;-inkscape-font-specification:'Sora Medium'" id="path40245"></path><path d="m 1308.06,166.5803 q -6.072,0 -10.856,-2.668 -4.692,-2.668 -7.452,-7.728 -2.668,-5.06 -2.944,-12.236 h 2.208 v 20.976 h -8.556 V 97.764301 h 10.764 V 130.8843 l -3.22,5.98 q 0.276,-7.912 3.036,-12.972 2.852,-5.152 7.452,-7.636 4.6,-2.484 10.304,-2.484 5.244,0 9.476,1.932 4.324,1.932 7.36,5.428 3.128,3.404 4.692,8.004 1.656,4.6 1.656,9.936 v 1.84 q 0,5.336 -1.656,9.936 -1.656,4.6 -4.876,8.188 -3.128,3.496 -7.544,5.52 -4.416,2.024 -9.844,2.024 z m -1.932,-9.292 q 4.508,0 7.912,-2.208 3.404,-2.208 5.244,-6.072 1.932,-3.956 1.932,-9.016 0,-5.152 -1.932,-8.924 -1.932,-3.864 -5.336,-5.98 -3.312,-2.116 -7.82,-2.116 -4.048,0 -7.544,1.84 -3.496,1.84 -5.612,5.336 -2.116,3.404 -2.116,8.28 v 3.956 q 0,4.692 2.116,8.096 2.208,3.312 5.704,5.06 3.496,1.748 7.452,1.748 z" style="font-weight:500;font-size:92px;font-family:Sora;-inkscape-font-specification:'Sora Medium'" id="path40247"></path><path d="m 1340.9041,184.3363 v -9.476 h 8.188 q 2.852,0 4.876,-0.736 2.024,-0.644 3.312,-2.392 1.288,-1.656 2.116,-4.508 l 14.444,-51.888 h 10.396 l -15.64,54.464 q -1.472,5.152 -4.14,8.372 -2.576,3.22 -6.624,4.692 -3.956,1.472 -9.568,1.472 z m 15.272,-20.516 v -8.74 h 10.672 v 8.74 z m -2.668,0 -16.836,-48.484 h 10.948 l 16.1,48.484 z" style="font-weight:500;font-size:92px;font-family:Sora;-inkscape-font-specification:'Sora Medium'" id="path40249"></path><path d="m 671.18093,381.61087 q -21.61576,0 -37.11798,-7.64193 -15.50221,-7.64194 -25.32755,-19.86904 -9.60701,-12.22709 -14.19217,-26.6376 -4.58516,-14.4105 -4.58516,-27.72931 v -4.8035 q 0,-14.84719 4.58516,-29.25769 4.80351,-14.41051 14.62885,-26.20092 9.82535,-11.79042 24.89087,-18.77733 15.28388,-7.20525 36.02627,-7.20525 21.61576,0 37.55465,7.86027 16.15724,7.64194 25.76424,21.8341 9.60701,13.97383 11.57207,32.75115 h -31.22276 q -1.74673,-10.91705 -7.86028,-18.34064 -5.8952,-7.64193 -15.06552,-11.35373 -9.17033,-3.93014 -20.7424,-3.93014 -11.79041,0 -20.96074,4.14848 -9.17032,3.93014 -15.28387,11.35373 -6.11354,7.4236 -9.38866,17.46728 -3.05677,10.04369 -3.05677,22.27078 0,11.79042 3.05677,21.8341 3.27512,10.04369 9.607,17.68563 6.33189,7.42359 15.50222,11.57207 9.38866,4.14848 21.61576,4.14848 17.90396,0 30.13105,-8.73364 12.44544,-8.95198 15.06553,-24.89088 h 31.22277 q -2.18341,17.0306 -11.57208,31.22277 -9.38866,14.19216 -25.76424,22.70746 -16.37557,8.5153 -39.08303,8.5153 z" style="font-weight:600;font-size:218.341px;font-family:Sora;-inkscape-font-specification:'Sora Semi-Bold'" id="path40251"></path><path d="m 828.38641,381.61087 q -15.72055,0 -27.72931,-5.02184 -12.00875,-5.02185 -20.30571,-13.53715 -8.29696,-8.73364 -12.66378,-19.65069 -4.14848,-10.91705 -4.14848,-22.70746 v -4.58516 q 0,-12.2271 4.36682,-23.14415 4.58516,-11.13539 12.88212,-19.65069 8.5153,-8.73364 20.52405,-13.53714 12.00876,-5.02184 27.07429,-5.02184 15.06553,0 27.07428,5.02184 12.00876,4.8035 20.30572,13.53714 8.51529,8.5153 12.88212,19.65069 4.36682,10.91705 4.36682,23.14415 v 4.58516 q 0,11.79041 -4.36682,22.70746 -4.14848,10.91705 -12.44544,19.65069 -8.29696,8.5153 -20.30572,13.53715 -12.00875,5.02184 -27.51096,5.02184 z m 0,-25.98258 q 11.13539,0 18.77732,-4.8035 7.64194,-5.02184 11.57208,-13.3188 3.93014,-8.5153 3.93014,-19.21401 0,-10.91705 -4.14848,-19.21401 -3.93014,-8.5153 -11.79042,-13.3188 -7.64193,-5.02184 -18.34064,-5.02184 -10.69871,0 -18.55899,5.02184 -7.64193,4.8035 -11.79041,13.3188 -4.14848,8.29696 -4.14848,19.21401 0,10.69871 3.93014,19.21401 4.14848,8.29696 11.79041,13.3188 7.64194,4.8035 18.77733,4.8035 z" style="font-weight:600;font-size:218.341px;font-family:Sora;-inkscape-font-specification:'Sora Semi-Bold'" id="path40253"></path><path d="M 925.32998,377.46239 V 258.90323 h 30.3494 v 118.55916 z m -16.59392,-95.8517 v -22.70746 h 46.94332 v 22.70746 z m 27.72931,-36.89963 q -8.95198,0 -13.3188,-4.58516 -4.14848,-4.8035 -4.14848,-11.79041 0,-7.4236 4.14848,-12.00876 4.36682,-4.58516 13.3188,-4.58516 8.95198,0 13.10046,4.58516 4.14848,4.58516 4.14848,12.00876 0,6.98691 -4.14848,11.79041 -4.14848,4.58516 -13.10046,4.58516 z" style="font-weight:600;font-size:218.341px;font-family:Sora;-inkscape-font-specification:'Sora Semi-Bold'" id="path40255"></path><path d="M 990.61411,377.46239 V 258.90323 h 24.01749 v 50.87345 h -2.1834 q 0,-18.1223 4.8035,-30.13106 4.8035,-12.22709 14.1922,-18.34064 9.607,-6.11355 23.7991,-6.11355 h 1.3101 q 21.1791,0 32.0961,13.75548 10.9171,13.53714 10.9171,40.61143 v 67.90405 h -30.3494 v -70.52414 q 0,-10.91705 -6.3319,-17.68562 -6.1136,-6.76858 -17.0306,-6.76858 -11.1354,0 -18.1223,6.98692 -6.7686,6.76857 -6.7686,18.34064 v 69.65078 z" style="font-weight:600;font-size:218.341px;font-family:Sora;-inkscape-font-specification:'Sora Semi-Bold'" id="path40257"></path><path d="m 1175.1124,381.17419 q -24.4542,0 -38.428,-10.26203 -13.7555,-10.48037 -14.4105,-28.82101 h 27.2926 q 0.655,6.11355 6.7686,11.13539 6.1135,5.02184 19.214,5.02184 10.917,0 17.2489,-3.93014 6.5502,-3.93013 6.5502,-10.6987 0,-5.89521 -5.0218,-9.38867 -4.8035,-3.49345 -16.5939,-4.58516 l -10.4804,-1.0917 q -19.869,-2.18341 -30.5677,-11.35374 -10.6987,-9.17032 -10.6987,-24.45419 0,-12.22709 6.1135,-20.52405 6.1136,-8.29696 16.8123,-12.44544 10.917,-4.36682 24.8909,-4.36682 21.8341,0 35.3712,9.607 13.5371,9.60701 14.1922,28.16599 h -27.2927 q -0.4366,-6.11354 -6.1135,-10.48036 -5.6769,-4.36682 -16.3756,-4.36682 -9.607,0 -14.8472,3.71179 -5.2402,3.7118 -5.2402,9.60701 0,5.67686 4.1485,8.73364 4.3668,3.05677 13.9738,4.14848 l 10.4804,1.0917 q 20.9607,2.18341 32.7512,11.57207 12.0087,9.38867 12.0087,25.32756 0,11.79041 -6.5502,20.52405 -6.3319,8.5153 -17.904,13.31881 -11.5721,4.8035 -27.2926,4.8035 z" style="font-weight:600;font-size:218.341px;font-family:Sora;-inkscape-font-specification:'Sora Semi-Bold'" id="path40259"></path><path d="m 1292.3615,381.17419 q -20.524,0 -31.8778,-13.53714 -11.1354,-13.53715 -11.1354,-40.17475 v -68.77741 h 30.3494 v 71.3975 q 0,10.91705 6.1136,17.46728 6.1135,6.33189 16.5939,6.33189 10.4804,0 17.0306,-6.76857 6.7686,-6.76857 6.7686,-18.34064 v -70.08746 h 30.3494 v 118.7775 h -24.0175 v -50.43677 h 2.4017 q 0,17.90396 -4.5852,29.91272 -4.5851,12.00875 -13.7554,18.1223 -9.1704,6.11355 -22.9258,6.11355 z" style="font-weight:600;font-size:218.341px;font-family:Sora;-inkscape-font-specification:'Sora Semi-Bold'" id="path40261"></path><path d="M 1393.0167,377.46239 V 218.07346 h 30.3494 v 159.38893 z m -14.8472,-136.68147 v -22.70746 h 45.1966 v 22.70746 z" style="font-weight:600;font-size:218.341px;font-family:Sora;-inkscape-font-specification:'Sora Semi-Bold'" id="path40263"></path><path d="m 1509.6109,378.99078 q -16.3756,0 -27.0743,-4.14848 -10.4804,-4.36682 -15.7206,-14.41051 -5.2402,-10.26202 -5.2402,-27.51096 l 0.2184,-107.42378 h 28.3843 l -0.2183,109.38885 q 0,8.73364 4.5851,13.53714 4.8035,4.58516 13.5372,4.58516 h 18.5589 v 25.98258 z m -66.8124,-97.81677 v -22.27078 h 83.8429 v 22.27078 z" style="font-weight:600;font-size:218.341px;font-family:Sora;-inkscape-font-specification:'Sora Semi-Bold'" id="path40265"></path></g></svg>